<mxfile host="app.diagrams.net" modified="2021-03-06T11:10:11.692Z" agent="5.0 (Windows NT 10.0; Win64; x64) AppleWebKit/537.36 (KHTML, like Gecko) Chrome/88.0.4324.182 Safari/537.36 Edg/88.0.705.81" etag="gHVpTFI1u2BNhSi6LK7L" version="14.4.4" type="github">
  <diagram id="C5RBs43oDa-KdzZeNtuy" name="Page-1">
    <mxGraphModel dx="764" dy="448" grid="1" gridSize="10" guides="1" tooltips="1" connect="1" arrows="1" fold="1" page="1" pageScale="1" pageWidth="827" pageHeight="1169" math="0" shadow="0">
      <root>
        <mxCell id="WIyWlLk6GJQsqaUBKTNV-0" />
        <mxCell id="WIyWlLk6GJQsqaUBKTNV-1" parent="WIyWlLk6GJQsqaUBKTNV-0" />
        <object label="X0" id="_86lbjDXmj_31HlodiXY-0">
          <mxCell style="ellipse;whiteSpace=wrap;html=1;aspect=fixed;fillColor=#dae8fc;strokeColor=#6c8ebf;" vertex="1" parent="WIyWlLk6GJQsqaUBKTNV-1">
            <mxGeometry x="239" y="119" width="40" height="40" as="geometry" />
          </mxCell>
        </object>
        <mxCell id="_86lbjDXmj_31HlodiXY-2" value="x1" style="ellipse;whiteSpace=wrap;html=1;aspect=fixed;fillColor=#dae8fc;strokeColor=#6c8ebf;" vertex="1" parent="WIyWlLk6GJQsqaUBKTNV-1">
          <mxGeometry x="239" y="199" width="40" height="40" as="geometry" />
        </mxCell>
        <mxCell id="_86lbjDXmj_31HlodiXY-3" value="x2" style="ellipse;whiteSpace=wrap;html=1;aspect=fixed;fillColor=#dae8fc;strokeColor=#6c8ebf;" vertex="1" parent="WIyWlLk6GJQsqaUBKTNV-1">
          <mxGeometry x="239" y="279" width="40" height="40" as="geometry" />
        </mxCell>
        <mxCell id="_86lbjDXmj_31HlodiXY-4" value="xn" style="ellipse;whiteSpace=wrap;html=1;aspect=fixed;fillColor=#dae8fc;strokeColor=#6c8ebf;" vertex="1" parent="WIyWlLk6GJQsqaUBKTNV-1">
          <mxGeometry x="239" y="439" width="40" height="40" as="geometry" />
        </mxCell>
        <mxCell id="_86lbjDXmj_31HlodiXY-7" value="" style="endArrow=none;dashed=1;html=1;dashPattern=1 3;strokeWidth=2;fillColor=#dae8fc;strokeColor=#6c8ebf;entryX=0.5;entryY=1;entryDx=0;entryDy=0;exitX=0.5;exitY=0;exitDx=0;exitDy=0;" edge="1" parent="WIyWlLk6GJQsqaUBKTNV-1" source="_86lbjDXmj_31HlodiXY-4" target="_86lbjDXmj_31HlodiXY-3">
          <mxGeometry width="50" height="50" relative="1" as="geometry">
            <mxPoint x="259" y="429" as="sourcePoint" />
            <mxPoint x="499" y="299" as="targetPoint" />
            <Array as="points" />
          </mxGeometry>
        </mxCell>
        <mxCell id="_86lbjDXmj_31HlodiXY-8" value="" style="ellipse;whiteSpace=wrap;html=1;aspect=fixed;fillColor=#fff2cc;strokeColor=#d6b656;" vertex="1" parent="WIyWlLk6GJQsqaUBKTNV-1">
          <mxGeometry x="359" y="239" width="40" height="40" as="geometry" />
        </mxCell>
        <mxCell id="_86lbjDXmj_31HlodiXY-9" value="" style="ellipse;whiteSpace=wrap;html=1;aspect=fixed;fillColor=#fff2cc;strokeColor=#d6b656;" vertex="1" parent="WIyWlLk6GJQsqaUBKTNV-1">
          <mxGeometry x="359" y="319" width="40" height="40" as="geometry" />
        </mxCell>
        <mxCell id="_86lbjDXmj_31HlodiXY-10" value="" style="ellipse;whiteSpace=wrap;html=1;aspect=fixed;fillColor=#fff2cc;strokeColor=#d6b656;" vertex="1" parent="WIyWlLk6GJQsqaUBKTNV-1">
          <mxGeometry x="359" y="439" width="40" height="40" as="geometry" />
        </mxCell>
        <mxCell id="_86lbjDXmj_31HlodiXY-11" value="" style="ellipse;whiteSpace=wrap;html=1;aspect=fixed;fillColor=#e1d5e7;strokeColor=#9673a6;" vertex="1" parent="WIyWlLk6GJQsqaUBKTNV-1">
          <mxGeometry x="519" y="239" width="40" height="40" as="geometry" />
        </mxCell>
        <mxCell id="_86lbjDXmj_31HlodiXY-12" value="" style="ellipse;whiteSpace=wrap;html=1;aspect=fixed;fillColor=#e1d5e7;strokeColor=#9673a6;" vertex="1" parent="WIyWlLk6GJQsqaUBKTNV-1">
          <mxGeometry x="519" y="319" width="40" height="40" as="geometry" />
        </mxCell>
        <mxCell id="_86lbjDXmj_31HlodiXY-13" value="" style="ellipse;whiteSpace=wrap;html=1;aspect=fixed;fillColor=#e1d5e7;strokeColor=#9673a6;" vertex="1" parent="WIyWlLk6GJQsqaUBKTNV-1">
          <mxGeometry x="519" y="439" width="40" height="40" as="geometry" />
        </mxCell>
        <mxCell id="_86lbjDXmj_31HlodiXY-14" value="" style="ellipse;whiteSpace=wrap;html=1;aspect=fixed;fillColor=#e1d5e7;strokeColor=#9673a6;" vertex="1" parent="WIyWlLk6GJQsqaUBKTNV-1">
          <mxGeometry x="519" y="159" width="40" height="40" as="geometry" />
        </mxCell>
        <mxCell id="_86lbjDXmj_31HlodiXY-15" value="" style="ellipse;whiteSpace=wrap;html=1;aspect=fixed;fillColor=#fff2cc;strokeColor=#d6b656;" vertex="1" parent="WIyWlLk6GJQsqaUBKTNV-1">
          <mxGeometry x="359" y="159" width="40" height="40" as="geometry" />
        </mxCell>
        <mxCell id="_86lbjDXmj_31HlodiXY-16" value="" style="endArrow=none;dashed=1;html=1;dashPattern=1 3;strokeWidth=2;entryX=0.5;entryY=1;entryDx=0;entryDy=0;exitX=0.5;exitY=0;exitDx=0;exitDy=0;fillColor=#fff2cc;strokeColor=#d6b656;" edge="1" parent="WIyWlLk6GJQsqaUBKTNV-1" source="_86lbjDXmj_31HlodiXY-10" target="_86lbjDXmj_31HlodiXY-9">
          <mxGeometry width="50" height="50" relative="1" as="geometry">
            <mxPoint x="449" y="279" as="sourcePoint" />
            <mxPoint x="499" y="229" as="targetPoint" />
            <Array as="points" />
          </mxGeometry>
        </mxCell>
        <mxCell id="_86lbjDXmj_31HlodiXY-17" value="" style="endArrow=none;dashed=1;html=1;dashPattern=1 3;strokeWidth=2;entryX=0.5;entryY=1;entryDx=0;entryDy=0;exitX=0.5;exitY=0;exitDx=0;exitDy=0;fillColor=#e1d5e7;strokeColor=#9673a6;" edge="1" parent="WIyWlLk6GJQsqaUBKTNV-1" source="_86lbjDXmj_31HlodiXY-13" target="_86lbjDXmj_31HlodiXY-12">
          <mxGeometry width="50" height="50" relative="1" as="geometry">
            <mxPoint x="449" y="279" as="sourcePoint" />
            <mxPoint x="499" y="229" as="targetPoint" />
          </mxGeometry>
        </mxCell>
        <mxCell id="_86lbjDXmj_31HlodiXY-19" value="" style="ellipse;whiteSpace=wrap;html=1;aspect=fixed;fillColor=#f8cecc;strokeColor=#b85450;" vertex="1" parent="WIyWlLk6GJQsqaUBKTNV-1">
          <mxGeometry x="679" y="299" width="40" height="40" as="geometry" />
        </mxCell>
        <mxCell id="_86lbjDXmj_31HlodiXY-21" value="" style="rounded=0;whiteSpace=wrap;html=1;shadow=0;glass=0;" vertex="1" parent="WIyWlLk6GJQsqaUBKTNV-1">
          <mxGeometry x="79" y="159" width="120" height="60" as="geometry" />
        </mxCell>
        <mxCell id="_86lbjDXmj_31HlodiXY-22" value="" style="strokeWidth=2;html=1;shape=mxgraph.flowchart.annotation_1;align=left;pointerEvents=1;rounded=0;shadow=0;glass=0;fillColor=#dae8fc;strokeColor=#6c8ebf;" vertex="1" parent="WIyWlLk6GJQsqaUBKTNV-1">
          <mxGeometry x="219" y="139" width="20" height="320" as="geometry" />
        </mxCell>
        <mxCell id="_86lbjDXmj_31HlodiXY-25" value="Input layer" style="text;html=1;strokeColor=none;fillColor=none;align=center;verticalAlign=middle;whiteSpace=wrap;rounded=0;shadow=0;glass=0;fontSize=18;fontStyle=1" vertex="1" parent="WIyWlLk6GJQsqaUBKTNV-1">
          <mxGeometry x="199" y="80" width="110" height="30" as="geometry" />
        </mxCell>
        <mxCell id="_86lbjDXmj_31HlodiXY-26" value="Hidden layer1" style="text;html=1;strokeColor=none;fillColor=none;align=center;verticalAlign=middle;whiteSpace=wrap;rounded=0;shadow=0;glass=0;fontSize=18;fontStyle=1" vertex="1" parent="WIyWlLk6GJQsqaUBKTNV-1">
          <mxGeometry x="330" y="80" width="130" height="30" as="geometry" />
        </mxCell>
        <mxCell id="_86lbjDXmj_31HlodiXY-27" value="Hidden layer2" style="text;html=1;strokeColor=none;fillColor=none;align=center;verticalAlign=middle;whiteSpace=wrap;rounded=0;shadow=0;glass=0;fontSize=18;fontStyle=1" vertex="1" parent="WIyWlLk6GJQsqaUBKTNV-1">
          <mxGeometry x="470" y="80" width="130" height="30" as="geometry" />
        </mxCell>
        <mxCell id="_86lbjDXmj_31HlodiXY-28" value="Output layer" style="text;html=1;strokeColor=none;fillColor=none;align=center;verticalAlign=middle;whiteSpace=wrap;rounded=0;shadow=0;glass=0;fontSize=18;fontStyle=1" vertex="1" parent="WIyWlLk6GJQsqaUBKTNV-1">
          <mxGeometry x="644" y="80" width="110" height="30" as="geometry" />
        </mxCell>
      </root>
    </mxGraphModel>
  </diagram>
</mxfile>
